<svg width="407" height="49" viewBox="0 0 407 49" fill="none" xmlns="http://www.w3.org/2000/svg">
<path d="M42.8137 12.6615L25.97 3.44532C25.5196 3.19768 25.014 3.06784 24.5 3.06784C23.986 3.06784 23.4804 3.19768 23.03 3.44532L6.18625 12.6673C5.70522 12.9305 5.30368 13.318 5.02356 13.7893C4.74343 14.2607 4.59499 14.7986 4.59375 15.347V33.6531C4.59499 34.2014 4.74343 34.7393 5.02356 35.2107C5.30368 35.682 5.70522 36.0695 6.18625 36.3327L23.03 45.5528C23.48 45.8015 23.9858 45.9319 24.5 45.9319C25.0142 45.9319 25.52 45.8015 25.97 45.5528L42.8137 36.3327C43.2948 36.0695 43.6963 35.682 43.9764 35.2107C44.2566 34.7393 44.405 34.2014 44.4062 33.6531V15.347C44.406 14.7977 44.2581 14.2585 43.9779 13.7861C43.6977 13.3136 43.2956 12.9252 42.8137 12.6615ZM32.1562 29.0938V38.6813L26.0312 42.0347V25.4073L41.3438 17.0237V23.1487L32.9525 27.7424C32.7103 27.875 32.5084 28.0705 32.3682 28.3084C32.2281 28.5463 32.1548 28.8176 32.1562 29.0938ZM16.0475 27.7539L7.65625 23.1602V17.0352L22.9688 25.4188V42.0462L16.8438 38.6813V29.0938C16.8431 28.8196 16.7689 28.5506 16.6288 28.3149C16.4888 28.0793 16.288 27.8855 16.0475 27.7539ZM15.9135 10.8317L23.7612 15.1288C23.9865 15.2521 24.2393 15.3167 24.4962 15.3167C24.7531 15.3167 25.0058 15.2521 25.2312 15.1288L33.0788 10.8317L39.6785 14.4435L24.5 22.7544L9.31383 14.4397L15.9135 10.8317ZM24.5 6.12501L29.8977 9.08032L24.5 12.0375L19.1023 9.08223L24.5 6.12501ZM7.65625 26.6476L13.7812 30.001V37.0046L7.65625 33.6531V26.6476ZM35.2188 37.0046V30.001L41.3438 26.6476V33.6531L35.2188 37.0046Z" fill="white"/>
<path d="M70.642 38.38C69.122 38.38 67.7667 38.038 66.576 37.354C65.3853 36.67 64.448 35.7327 63.764 34.542V38H59.318V10.26H64.41V21.584C65.1193 20.3933 66.044 19.456 67.184 18.772C68.3493 18.088 69.7047 17.746 71.25 17.746C72.542 17.746 73.72 18.0247 74.784 18.582C75.848 19.114 76.76 19.8613 77.52 20.824C78.3053 21.7867 78.9007 22.8887 79.306 24.13C79.7367 25.3713 79.952 26.7013 79.952 28.12C79.952 29.5387 79.7113 30.8687 79.23 32.11C78.774 33.3513 78.128 34.4533 77.292 35.416C76.456 36.3533 75.468 37.088 74.328 37.62C73.2133 38.1267 71.9847 38.38 70.642 38.38ZM69.236 34.048C70.0467 34.048 70.7813 33.896 71.44 33.592C72.124 33.2627 72.7067 32.832 73.188 32.3C73.6947 31.768 74.0747 31.1473 74.328 30.438C74.6067 29.7033 74.746 28.9433 74.746 28.158C74.746 27.0687 74.518 26.068 74.062 25.156C73.6313 24.2187 73.0233 23.4713 72.238 22.914C71.478 22.3567 70.5787 22.078 69.54 22.078C68.8053 22.078 68.096 22.2553 67.412 22.61C66.7533 22.9393 66.158 23.3953 65.626 23.978C65.1193 24.5607 64.714 25.2193 64.41 25.954V30.704C64.562 31.2107 64.8027 31.6667 65.132 32.072C65.4867 32.4773 65.892 32.832 66.348 33.136C66.804 33.4147 67.2727 33.6427 67.754 33.82C68.2607 33.972 68.7547 34.048 69.236 34.048ZM92.598 38.38C90.9767 38.38 89.52 38.114 88.228 37.582C86.936 37.0247 85.834 36.2647 84.922 35.302C84.0353 34.3393 83.3513 33.2373 82.87 31.996C82.3887 30.7547 82.148 29.45 82.148 28.082C82.148 26.6887 82.3887 25.3713 82.87 24.13C83.3513 22.8887 84.0353 21.7867 84.922 20.824C85.834 19.8613 86.936 19.114 88.228 18.582C89.52 18.0247 90.9767 17.746 92.598 17.746C94.2193 17.746 95.6633 18.0247 96.93 18.582C98.222 19.114 99.324 19.8613 100.236 20.824C101.148 21.7867 101.832 22.8887 102.288 24.13C102.769 25.3713 103.01 26.6887 103.01 28.082C103.01 29.45 102.769 30.7547 102.288 31.996C101.832 33.2373 101.148 34.3393 100.236 35.302C99.3493 36.2647 98.26 37.0247 96.968 37.582C95.676 38.114 94.2193 38.38 92.598 38.38ZM87.392 28.082C87.392 29.2473 87.62 30.286 88.076 31.198C88.532 32.0847 89.1527 32.7813 89.938 33.288C90.7233 33.7947 91.61 34.048 92.598 34.048C93.5607 34.048 94.4347 33.7947 95.22 33.288C96.0053 32.756 96.626 32.0467 97.082 31.16C97.5633 30.248 97.804 29.2093 97.804 28.044C97.804 26.904 97.5633 25.878 97.082 24.966C96.626 24.054 96.0053 23.3447 95.22 22.838C94.4347 22.3313 93.5607 22.078 92.598 22.078C91.61 22.078 90.7233 22.344 89.938 22.876C89.1527 23.3827 88.532 24.092 88.076 25.004C87.62 25.8907 87.392 26.9167 87.392 28.082ZM124.953 38H119.861V26.828C119.861 25.232 119.582 24.0667 119.025 23.332C118.468 22.5973 117.695 22.23 116.707 22.23C116.023 22.23 115.326 22.4073 114.617 22.762C113.933 23.1167 113.312 23.6107 112.755 24.244C112.198 24.852 111.792 25.5613 111.539 26.372V38H106.447V18.088H111.045V21.774C111.552 20.9127 112.198 20.1907 112.983 19.608C113.768 19 114.668 18.544 115.681 18.24C116.72 17.9107 117.809 17.746 118.949 17.746C120.19 17.746 121.204 17.974 121.989 18.43C122.8 18.8607 123.408 19.456 123.813 20.216C124.244 20.9507 124.535 21.7867 124.687 22.724C124.864 23.6613 124.953 24.6113 124.953 25.574V38ZM129.191 30.552V18.088H134.283V29.45C134.283 30.97 134.561 32.1227 135.119 32.908C135.676 33.668 136.499 34.048 137.589 34.048C138.247 34.048 138.893 33.9213 139.527 33.668C140.185 33.3893 140.781 32.984 141.313 32.452C141.87 31.92 142.339 31.2487 142.719 30.438V18.088H147.811V32.3C147.811 32.832 147.899 33.212 148.077 33.44C148.279 33.668 148.596 33.8073 149.027 33.858V38C148.52 38.076 148.089 38.1267 147.735 38.152C147.405 38.2027 147.101 38.228 146.823 38.228C145.911 38.228 145.163 38.0253 144.581 37.62C144.023 37.1893 143.694 36.6067 143.593 35.872L143.479 34.276C142.592 35.6187 141.452 36.6447 140.059 37.354C138.665 38.038 137.133 38.38 135.461 38.38C133.409 38.38 131.851 37.7213 130.787 36.404C129.723 35.0613 129.191 33.1107 129.191 30.552ZM160.205 38.38C158.507 38.38 156.886 38.1013 155.341 37.544C153.795 36.9867 152.465 36.1633 151.351 35.074L153.175 31.768C154.365 32.7307 155.531 33.44 156.671 33.896C157.836 34.352 158.951 34.58 160.015 34.58C161.003 34.58 161.788 34.4027 162.371 34.048C162.979 33.6933 163.283 33.1613 163.283 32.452C163.283 31.9707 163.118 31.6033 162.789 31.35C162.459 31.0713 161.978 30.8307 161.345 30.628C160.737 30.4253 159.989 30.1973 159.103 29.944C157.633 29.4627 156.405 28.994 155.417 28.538C154.429 28.082 153.681 27.512 153.175 26.828C152.693 26.1187 152.453 25.2193 152.453 24.13C152.453 22.8127 152.782 21.6853 153.441 20.748C154.125 19.7853 155.062 19.038 156.253 18.506C157.469 17.974 158.887 17.708 160.509 17.708C161.927 17.708 163.27 17.936 164.537 18.392C165.803 18.8227 166.956 19.532 167.995 20.52L165.943 23.75C164.929 22.9647 163.967 22.3947 163.055 22.04C162.143 21.66 161.218 21.47 160.281 21.47C159.749 21.47 159.242 21.5333 158.761 21.66C158.305 21.7867 157.925 22.002 157.621 22.306C157.342 22.5847 157.203 22.99 157.203 23.522C157.203 24.0033 157.329 24.3833 157.583 24.662C157.861 24.9153 158.267 25.1433 158.799 25.346C159.356 25.5487 160.027 25.7767 160.813 26.03C162.409 26.486 163.751 26.9547 164.841 27.436C165.955 27.9173 166.791 28.5127 167.349 29.222C167.906 29.906 168.185 30.856 168.185 32.072C168.185 34.048 167.463 35.5933 166.019 36.708C164.575 37.8227 162.637 38.38 160.205 38.38ZM180.92 38.38C179.299 38.38 177.842 38.114 176.55 37.582C175.258 37.0247 174.156 36.2647 173.244 35.302C172.332 34.314 171.623 33.1993 171.116 31.958C170.635 30.7167 170.394 29.412 170.394 28.044C170.394 26.1693 170.812 24.4593 171.648 22.914C172.509 21.3433 173.725 20.0893 175.296 19.152C176.867 18.2147 178.729 17.746 180.882 17.746C183.035 17.746 184.885 18.2147 186.43 19.152C187.975 20.0893 189.128 21.318 189.888 22.838L184.91 24.358C184.479 23.6233 183.909 23.066 183.2 22.686C182.491 22.2807 181.705 22.078 180.844 22.078C179.881 22.078 178.995 22.3313 178.184 22.838C177.399 23.3193 176.778 24.016 176.322 24.928C175.866 25.8147 175.638 26.8533 175.638 28.044C175.638 29.2093 175.866 30.248 176.322 31.16C176.803 32.0467 177.437 32.756 178.222 33.288C179.007 33.7947 179.881 34.048 180.844 34.048C181.452 34.048 182.022 33.9467 182.554 33.744C183.111 33.5413 183.605 33.2627 184.036 32.908C184.467 32.5533 184.783 32.148 184.986 31.692L189.964 33.212C189.508 34.2 188.837 35.0867 187.95 35.872C187.089 36.6573 186.063 37.278 184.872 37.734C183.707 38.1647 182.389 38.38 180.92 38.38ZM202.108 38.38C200.486 38.38 199.03 38.114 197.738 37.582C196.446 37.0247 195.344 36.2647 194.432 35.302C193.545 34.3393 192.861 33.2373 192.38 31.996C191.898 30.7547 191.658 29.45 191.658 28.082C191.658 26.6887 191.898 25.3713 192.38 24.13C192.861 22.8887 193.545 21.7867 194.432 20.824C195.344 19.8613 196.446 19.114 197.738 18.582C199.03 18.0247 200.486 17.746 202.108 17.746C203.729 17.746 205.173 18.0247 206.44 18.582C207.732 19.114 208.834 19.8613 209.746 20.824C210.658 21.7867 211.342 22.8887 211.798 24.13C212.279 25.3713 212.52 26.6887 212.52 28.082C212.52 29.45 212.279 30.7547 211.798 31.996C211.342 33.2373 210.658 34.3393 209.746 35.302C208.859 36.2647 207.77 37.0247 206.478 37.582C205.186 38.114 203.729 38.38 202.108 38.38ZM196.902 28.082C196.902 29.2473 197.13 30.286 197.586 31.198C198.042 32.0847 198.662 32.7813 199.448 33.288C200.233 33.7947 201.12 34.048 202.108 34.048C203.07 34.048 203.944 33.7947 204.73 33.288C205.515 32.756 206.136 32.0467 206.592 31.16C207.073 30.248 207.314 29.2093 207.314 28.044C207.314 26.904 207.073 25.878 206.592 24.966C206.136 24.054 205.515 23.3447 204.73 22.838C203.944 22.3313 203.07 22.078 202.108 22.078C201.12 22.078 200.233 22.344 199.448 22.876C198.662 23.3827 198.042 24.092 197.586 25.004C197.13 25.8907 196.902 26.9167 196.902 28.082ZM214.741 28.044C214.741 26.1187 215.121 24.3833 215.881 22.838C216.641 21.2673 217.692 20.026 219.035 19.114C220.377 18.202 221.91 17.746 223.633 17.746C225.102 17.746 226.419 18.1133 227.585 18.848C228.775 19.5573 229.7 20.4693 230.359 21.584V10.26H235.451V32.3C235.451 32.832 235.539 33.212 235.717 33.44C235.894 33.668 236.198 33.8073 236.629 33.858V38C235.742 38.1773 235.02 38.266 234.463 38.266C233.551 38.266 232.791 38.038 232.183 37.582C231.6 37.126 231.271 36.5307 231.195 35.796L231.119 34.542C230.384 35.7833 229.383 36.7333 228.117 37.392C226.875 38.0507 225.571 38.38 224.203 38.38C222.835 38.38 221.568 38.114 220.403 37.582C219.263 37.05 218.262 36.3153 217.401 35.378C216.565 34.4407 215.906 33.3513 215.425 32.11C214.969 30.8433 214.741 29.488 214.741 28.044ZM230.359 30.704V25.954C230.105 25.2193 229.7 24.5607 229.143 23.978C228.585 23.3953 227.965 22.9393 227.281 22.61C226.597 22.2553 225.913 22.078 225.229 22.078C224.443 22.078 223.734 22.2427 223.101 22.572C222.467 22.9013 221.91 23.3447 221.429 23.902C220.973 24.4593 220.618 25.1053 220.365 25.84C220.137 26.5747 220.023 27.3473 220.023 28.158C220.023 28.9687 220.149 29.7413 220.403 30.476C220.681 31.1853 221.074 31.806 221.581 32.338C222.087 32.87 222.67 33.288 223.329 33.592C224.013 33.896 224.747 34.048 225.533 34.048C226.014 34.048 226.495 33.972 226.977 33.82C227.483 33.6427 227.952 33.4147 228.383 33.136C228.839 32.832 229.231 32.4773 229.561 32.072C229.915 31.6413 230.181 31.1853 230.359 30.704ZM249.683 38.38C248.087 38.38 246.643 38.114 245.351 37.582C244.059 37.0247 242.957 36.2773 242.045 35.34C241.133 34.3773 240.424 33.288 239.917 32.072C239.436 30.8307 239.195 29.526 239.195 28.158C239.195 26.258 239.613 24.5227 240.449 22.952C241.31 21.3813 242.526 20.1273 244.097 19.19C245.693 18.2273 247.568 17.746 249.721 17.746C251.9 17.746 253.762 18.2273 255.307 19.19C256.852 20.1273 258.03 21.3813 258.841 22.952C259.677 24.4973 260.095 26.1693 260.095 27.968C260.095 28.272 260.082 28.5887 260.057 28.918C260.032 29.222 260.006 29.4753 259.981 29.678H244.591C244.692 30.6913 244.984 31.578 245.465 32.338C245.972 33.098 246.605 33.6807 247.365 34.086C248.15 34.466 248.986 34.656 249.873 34.656C250.886 34.656 251.836 34.4153 252.723 33.934C253.635 33.4273 254.256 32.7687 254.585 31.958L258.955 33.174C258.474 34.1873 257.777 35.0867 256.865 35.872C255.978 36.6573 254.927 37.278 253.711 37.734C252.495 38.1647 251.152 38.38 249.683 38.38ZM244.477 26.448H254.889C254.788 25.4347 254.496 24.5607 254.015 23.826C253.559 23.066 252.951 22.4833 252.191 22.078C251.431 21.6473 250.582 21.432 249.645 21.432C248.733 21.432 247.897 21.6473 247.137 22.078C246.402 22.4833 245.794 23.066 245.313 23.826C244.857 24.5607 244.578 25.4347 244.477 26.448ZM270.531 38.38C268.834 38.38 267.212 38.1013 265.667 37.544C264.122 36.9867 262.792 36.1633 261.677 35.074L263.501 31.768C264.692 32.7307 265.857 33.44 266.997 33.896C268.162 34.352 269.277 34.58 270.341 34.58C271.329 34.58 272.114 34.4027 272.697 34.048C273.305 33.6933 273.609 33.1613 273.609 32.452C273.609 31.9707 273.444 31.6033 273.115 31.35C272.786 31.0713 272.304 30.8307 271.671 30.628C271.063 30.4253 270.316 30.1973 269.429 29.944C267.96 29.4627 266.731 28.994 265.743 28.538C264.755 28.082 264.008 27.512 263.501 26.828C263.02 26.1187 262.779 25.2193 262.779 24.13C262.779 22.8127 263.108 21.6853 263.767 20.748C264.451 19.7853 265.388 19.038 266.579 18.506C267.795 17.974 269.214 17.708 270.835 17.708C272.254 17.708 273.596 17.936 274.863 18.392C276.13 18.8227 277.282 19.532 278.321 20.52L276.269 23.75C275.256 22.9647 274.293 22.3947 273.381 22.04C272.469 21.66 271.544 21.47 270.607 21.47C270.075 21.47 269.568 21.5333 269.087 21.66C268.631 21.7867 268.251 22.002 267.947 22.306C267.668 22.5847 267.529 22.99 267.529 23.522C267.529 24.0033 267.656 24.3833 267.909 24.662C268.188 24.9153 268.593 25.1433 269.125 25.346C269.682 25.5487 270.354 25.7767 271.139 26.03C272.735 26.486 274.078 26.9547 275.167 27.436C276.282 27.9173 277.118 28.5127 277.675 29.222C278.232 29.906 278.511 30.856 278.511 32.072C278.511 34.048 277.789 35.5933 276.345 36.708C274.901 37.8227 272.963 38.38 270.531 38.38ZM281.86 38V32.528H286.04V38H281.86ZM299.335 38.38C297.739 38.38 296.295 38.114 295.003 37.582C293.711 37.0247 292.609 36.2773 291.697 35.34C290.785 34.3773 290.076 33.288 289.569 32.072C289.088 30.8307 288.847 29.526 288.847 28.158C288.847 26.258 289.265 24.5227 290.101 22.952C290.963 21.3813 292.179 20.1273 293.749 19.19C295.345 18.2273 297.22 17.746 299.373 17.746C301.552 17.746 303.414 18.2273 304.959 19.19C306.505 20.1273 307.683 21.3813 308.493 22.952C309.329 24.4973 309.747 26.1693 309.747 27.968C309.747 28.272 309.735 28.5887 309.709 28.918C309.684 29.222 309.659 29.4753 309.633 29.678H294.243C294.345 30.6913 294.636 31.578 295.117 32.338C295.624 33.098 296.257 33.6807 297.017 34.086C297.803 34.466 298.639 34.656 299.525 34.656C300.539 34.656 301.489 34.4153 302.375 33.934C303.287 33.4273 303.908 32.7687 304.237 31.958L308.607 33.174C308.126 34.1873 307.429 35.0867 306.517 35.872C305.631 36.6573 304.579 37.278 303.363 37.734C302.147 38.1647 300.805 38.38 299.335 38.38ZM294.129 26.448H304.541C304.44 25.4347 304.149 24.5607 303.667 23.826C303.211 23.066 302.603 22.4833 301.843 22.078C301.083 21.6473 300.235 21.432 299.297 21.432C298.385 21.432 297.549 21.6473 296.789 22.078C296.055 22.4833 295.447 23.066 294.965 23.826C294.509 24.5607 294.231 25.4347 294.129 26.448ZM315.375 18.088L319.555 24.32L319.859 25.004L320.239 24.32L324.381 18.088H329.739L322.823 28.006L329.853 38H324.495L320.201 31.806L319.859 31.16L319.555 31.806L315.299 38H309.941L316.971 28.12L310.055 18.088H315.375ZM344.227 38.38C342.681 38.38 341.313 38.038 340.123 37.354C338.957 36.6447 338.045 35.6947 337.387 34.504V46.094H332.295V18.088H336.741V21.508C337.501 20.3427 338.463 19.4307 339.629 18.772C340.794 18.088 342.124 17.746 343.619 17.746C344.961 17.746 346.19 18.012 347.305 18.544C348.445 19.076 349.433 19.8233 350.269 20.786C351.105 21.7233 351.751 22.8127 352.207 24.054C352.688 25.27 352.929 26.5873 352.929 28.006C352.929 29.9313 352.549 31.6793 351.789 33.25C351.054 34.8207 350.028 36.0747 348.711 37.012C347.419 37.924 345.924 38.38 344.227 38.38ZM342.517 34.048C343.302 34.048 344.011 33.8833 344.645 33.554C345.278 33.2247 345.823 32.7813 346.279 32.224C346.76 31.6413 347.115 30.9953 347.343 30.286C347.596 29.5513 347.723 28.7913 347.723 28.006C347.723 27.17 347.583 26.3973 347.305 25.688C347.051 24.9787 346.671 24.358 346.165 23.826C345.658 23.2687 345.063 22.838 344.379 22.534C343.72 22.23 342.998 22.078 342.213 22.078C341.731 22.078 341.237 22.1667 340.731 22.344C340.249 22.496 339.781 22.724 339.325 23.028C338.869 23.332 338.463 23.6867 338.109 24.092C337.779 24.4973 337.539 24.9407 337.387 25.422V30.096C337.691 30.8307 338.096 31.502 338.603 32.11C339.135 32.718 339.743 33.1993 340.427 33.554C341.111 33.8833 341.807 34.048 342.517 34.048ZM365.613 38.38C364.017 38.38 362.573 38.114 361.281 37.582C359.989 37.0247 358.887 36.2773 357.975 35.34C357.063 34.3773 356.353 33.288 355.847 32.072C355.365 30.8307 355.125 29.526 355.125 28.158C355.125 26.258 355.543 24.5227 356.379 22.952C357.24 21.3813 358.456 20.1273 360.027 19.19C361.623 18.2273 363.497 17.746 365.651 17.746C367.829 17.746 369.691 18.2273 371.237 19.19C372.782 20.1273 373.96 21.3813 374.771 22.952C375.607 24.4973 376.025 26.1693 376.025 27.968C376.025 28.272 376.012 28.5887 375.987 28.918C375.961 29.222 375.936 29.4753 375.911 29.678H360.521C360.622 30.6913 360.913 31.578 361.395 32.338C361.901 33.098 362.535 33.6807 363.295 34.086C364.08 34.466 364.916 34.656 365.803 34.656C366.816 34.656 367.766 34.4153 368.653 33.934C369.565 33.4273 370.185 32.7687 370.515 31.958L374.885 33.174C374.403 34.1873 373.707 35.0867 372.795 35.872C371.908 36.6573 370.857 37.278 369.641 37.734C368.425 38.1647 367.082 38.38 365.613 38.38ZM360.407 26.448H370.819C370.717 25.4347 370.426 24.5607 369.945 23.826C369.489 23.066 368.881 22.4833 368.121 22.078C367.361 21.6473 366.512 21.432 365.575 21.432C364.663 21.432 363.827 21.6473 363.067 22.078C362.332 22.4833 361.724 23.066 361.243 23.826C360.787 24.5607 360.508 25.4347 360.407 26.448ZM390.983 22.496C389.437 22.496 388.057 22.8 386.841 23.408C385.625 23.9907 384.751 24.8393 384.219 25.954V38H379.127V18.088H383.801V22.344C384.51 20.976 385.409 19.8993 386.499 19.114C387.588 18.3287 388.741 17.898 389.957 17.822C390.235 17.822 390.451 17.822 390.603 17.822C390.755 17.822 390.881 17.8347 390.983 17.86V22.496ZM405.754 36.974C405.323 37.1513 404.804 37.354 404.196 37.582C403.588 37.81 402.929 37.9873 402.22 38.114C401.536 38.266 400.839 38.342 400.13 38.342C399.193 38.342 398.331 38.1773 397.546 37.848C396.761 37.5187 396.127 36.9993 395.646 36.29C395.19 35.5553 394.962 34.6053 394.962 33.44V22.002H392.34V18.088H394.962V11.628H400.054V18.088H404.234V22.002H400.054V31.73C400.079 32.414 400.269 32.908 400.624 33.212C400.979 33.516 401.422 33.668 401.954 33.668C402.486 33.668 403.005 33.5793 403.512 33.402C404.019 33.2247 404.424 33.0727 404.728 32.946L405.754 36.974Z" fill="white"/>
</svg>
