<svg width="287" height="40" viewBox="0 0 287 40" fill="none" xmlns="http://www.w3.org/2000/svg">
<path d="M34.95 10.3359L21.2 2.81251C20.8323 2.61036 20.4196 2.50436 20 2.50436C19.5804 2.50436 19.1677 2.61036 18.8 2.81251L5.05 10.3406C4.65733 10.5555 4.32954 10.8718 4.10086 11.2566C3.87219 11.6414 3.75102 12.0805 3.75 12.5281V27.4719C3.75102 27.9195 3.87219 28.3586 4.10086 28.7434C4.32954 29.1282 4.65733 29.4445 5.05 29.6594L18.8 37.1859C19.1674 37.3889 19.5803 37.4954 20 37.4954C20.4197 37.4954 20.8326 37.3889 21.2 37.1859L34.95 29.6594C35.3427 29.4445 35.6705 29.1282 35.8991 28.7434C36.1278 28.3586 36.249 27.9195 36.25 27.4719V12.5281C36.2498 12.0797 36.129 11.6396 35.9003 11.2539C35.6716 10.8683 35.3434 10.5512 34.95 10.3359ZM26.25 23.75V31.5766L21.25 34.3141V20.7406L33.75 13.8969V18.8969L26.9 22.6469C26.7023 22.7551 26.5375 22.9147 26.423 23.1089C26.3086 23.3031 26.2488 23.5246 26.25 23.75ZM13.1 22.6563L6.25 18.9063V13.9063L18.75 20.75V34.3234L13.75 31.5766V23.75C13.7495 23.5262 13.6889 23.3066 13.5746 23.1142C13.4602 22.9219 13.2963 22.7637 13.1 22.6563ZM12.9906 8.8422L19.3969 12.35C19.5808 12.4507 19.7872 12.5034 19.9969 12.5034C20.2066 12.5034 20.4129 12.4507 20.5969 12.35L27.0031 8.8422L32.3906 11.7906L20 18.575L7.60313 11.7875L12.9906 8.8422ZM20 5.00001L24.4062 7.41251L20 9.82657L15.5938 7.41407L20 5.00001ZM6.25 21.7531L11.25 24.4906V30.2078L6.25 27.4719V21.7531ZM28.75 30.2078V24.4906L33.75 21.7531V27.4719L28.75 30.2078Z" fill="url(#paint0_linear_7_78)"/>
<path d="M57.334 29.76C56.294 29.76 55.3667 29.526 54.552 29.058C53.7373 28.59 53.096 27.9487 52.628 27.134V29.5H49.586V10.52H53.07V18.268C53.5553 17.4533 54.188 16.812 54.968 16.344C55.7653 15.876 56.6927 15.642 57.75 15.642C58.634 15.642 59.44 15.8327 60.168 16.214C60.896 16.578 61.52 17.0893 62.04 17.748C62.5773 18.4067 62.9847 19.1607 63.262 20.01C63.5567 20.8593 63.704 21.7693 63.704 22.74C63.704 23.7107 63.5393 24.6207 63.21 25.47C62.898 26.3193 62.456 27.0733 61.884 27.732C61.312 28.3733 60.636 28.876 59.856 29.24C59.0933 29.5867 58.2527 29.76 57.334 29.76ZM56.372 26.796C56.9267 26.796 57.4293 26.692 57.88 26.484C58.348 26.2587 58.7467 25.964 59.076 25.6C59.4227 25.236 59.6827 24.8113 59.856 24.326C60.0467 23.8233 60.142 23.3033 60.142 22.766C60.142 22.0207 59.986 21.336 59.674 20.712C59.3793 20.0707 58.9633 19.5593 58.426 19.178C57.906 18.7967 57.2907 18.606 56.58 18.606C56.0773 18.606 55.592 18.7273 55.124 18.97C54.6733 19.1953 54.266 19.5073 53.902 19.906C53.5553 20.3047 53.278 20.7553 53.07 21.258V24.508C53.174 24.8547 53.3387 25.1667 53.564 25.444C53.8067 25.7213 54.084 25.964 54.396 26.172C54.708 26.3627 55.0287 26.5187 55.358 26.64C55.7047 26.744 56.0427 26.796 56.372 26.796ZM72.3565 29.76C71.2472 29.76 70.2505 29.578 69.3665 29.214C68.4825 28.8327 67.7285 28.3127 67.1045 27.654C66.4978 26.9953 66.0298 26.2413 65.7005 25.392C65.3712 24.5427 65.2065 23.65 65.2065 22.714C65.2065 21.7607 65.3712 20.8593 65.7005 20.01C66.0298 19.1607 66.4978 18.4067 67.1045 17.748C67.7285 17.0893 68.4825 16.578 69.3665 16.214C70.2505 15.8327 71.2472 15.642 72.3565 15.642C73.4658 15.642 74.4538 15.8327 75.3205 16.214C76.2045 16.578 76.9585 17.0893 77.5825 17.748C78.2065 18.4067 78.6745 19.1607 78.9865 20.01C79.3158 20.8593 79.4805 21.7607 79.4805 22.714C79.4805 23.65 79.3158 24.5427 78.9865 25.392C78.6745 26.2413 78.2065 26.9953 77.5825 27.654C76.9758 28.3127 76.2305 28.8327 75.3465 29.214C74.4625 29.578 73.4658 29.76 72.3565 29.76ZM68.7945 22.714C68.7945 23.5113 68.9505 24.222 69.2625 24.846C69.5745 25.4527 69.9992 25.9293 70.5365 26.276C71.0738 26.6227 71.6805 26.796 72.3565 26.796C73.0152 26.796 73.6132 26.6227 74.1505 26.276C74.6878 25.912 75.1125 25.4267 75.4245 24.82C75.7538 24.196 75.9185 23.4853 75.9185 22.688C75.9185 21.908 75.7538 21.206 75.4245 20.582C75.1125 19.958 74.6878 19.4727 74.1505 19.126C73.6132 18.7793 73.0152 18.606 72.3565 18.606C71.6805 18.606 71.0738 18.788 70.5365 19.152C69.9992 19.4987 69.5745 19.984 69.2625 20.608C68.9505 21.2147 68.7945 21.9167 68.7945 22.714ZM94.4941 29.5H91.0101V21.856C91.0101 20.764 90.8194 19.9667 90.4381 19.464C90.0568 18.9613 89.5281 18.71 88.8521 18.71C88.3841 18.71 87.9074 18.8313 87.4221 19.074C86.9541 19.3167 86.5294 19.6547 86.1481 20.088C85.7668 20.504 85.4894 20.9893 85.3161 21.544V29.5H81.8321V15.876H84.9781V18.398C85.3248 17.8087 85.7668 17.3147 86.3041 16.916C86.8414 16.5 87.4568 16.188 88.1501 15.98C88.8608 15.7547 89.6061 15.642 90.3861 15.642C91.2354 15.642 91.9288 15.798 92.4661 16.11C93.0208 16.4047 93.4368 16.812 93.7141 17.332C94.0088 17.8347 94.2081 18.4067 94.3121 19.048C94.4334 19.6893 94.4941 20.3393 94.4941 20.998V29.5ZM97.3935 24.404V15.876H100.878V23.65C100.878 24.69 101.068 25.4787 101.45 26.016C101.831 26.536 102.394 26.796 103.14 26.796C103.59 26.796 104.032 26.7093 104.466 26.536C104.916 26.3453 105.324 26.068 105.688 25.704C106.069 25.34 106.39 24.8807 106.65 24.326V15.876H110.134V25.6C110.134 25.964 110.194 26.224 110.316 26.38C110.454 26.536 110.671 26.6313 110.966 26.666V29.5C110.619 29.552 110.324 29.5867 110.082 29.604C109.856 29.6387 109.648 29.656 109.458 29.656C108.834 29.656 108.322 29.5173 107.924 29.24C107.542 28.9453 107.317 28.5467 107.248 28.044L107.17 26.952C106.563 27.8707 105.783 28.5727 104.83 29.058C103.876 29.526 102.828 29.76 101.684 29.76C100.28 29.76 99.2135 29.3093 98.4855 28.408C97.7575 27.4893 97.3935 26.1547 97.3935 24.404ZM118.614 29.76C117.452 29.76 116.343 29.5693 115.286 29.188C114.228 28.8067 113.318 28.2433 112.556 27.498L113.804 25.236C114.618 25.8947 115.416 26.38 116.196 26.692C116.993 27.004 117.756 27.16 118.484 27.16C119.16 27.16 119.697 27.0387 120.096 26.796C120.512 26.5533 120.72 26.1893 120.72 25.704C120.72 25.3747 120.607 25.1233 120.382 24.95C120.156 24.7593 119.827 24.5947 119.394 24.456C118.978 24.3173 118.466 24.1613 117.86 23.988C116.854 23.6587 116.014 23.338 115.338 23.026C114.662 22.714 114.15 22.324 113.804 21.856C113.474 21.3707 113.31 20.7553 113.31 20.01C113.31 19.1087 113.535 18.3373 113.986 17.696C114.454 17.0373 115.095 16.526 115.91 16.162C116.742 15.798 117.712 15.616 118.822 15.616C119.792 15.616 120.711 15.772 121.578 16.084C122.444 16.3787 123.233 16.864 123.944 17.54L122.54 19.75C121.846 19.2127 121.188 18.8227 120.564 18.58C119.94 18.32 119.307 18.19 118.666 18.19C118.302 18.19 117.955 18.2333 117.626 18.32C117.314 18.4067 117.054 18.554 116.846 18.762C116.655 18.9527 116.56 19.23 116.56 19.594C116.56 19.9233 116.646 20.1833 116.82 20.374C117.01 20.5473 117.288 20.7033 117.652 20.842C118.033 20.9807 118.492 21.1367 119.03 21.31C120.122 21.622 121.04 21.9427 121.786 22.272C122.548 22.6013 123.12 23.0087 123.502 23.494C123.883 23.962 124.074 24.612 124.074 25.444C124.074 26.796 123.58 27.8533 122.592 28.616C121.604 29.3787 120.278 29.76 118.614 29.76ZM132.787 29.76C131.678 29.76 130.681 29.578 129.797 29.214C128.913 28.8327 128.159 28.3127 127.535 27.654C126.911 26.978 126.426 26.2153 126.079 25.366C125.75 24.5167 125.585 23.624 125.585 22.688C125.585 21.4053 125.871 20.2353 126.443 19.178C127.033 18.1033 127.865 17.2453 128.939 16.604C130.014 15.9627 131.288 15.642 132.761 15.642C134.235 15.642 135.5 15.9627 136.557 16.604C137.615 17.2453 138.403 18.086 138.923 19.126L135.517 20.166C135.223 19.6633 134.833 19.282 134.347 19.022C133.862 18.7447 133.325 18.606 132.735 18.606C132.077 18.606 131.47 18.7793 130.915 19.126C130.378 19.4553 129.953 19.932 129.641 20.556C129.329 21.1627 129.173 21.8733 129.173 22.688C129.173 23.4853 129.329 24.196 129.641 24.82C129.971 25.4267 130.404 25.912 130.941 26.276C131.479 26.6227 132.077 26.796 132.735 26.796C133.151 26.796 133.541 26.7267 133.905 26.588C134.287 26.4493 134.625 26.2587 134.919 26.016C135.214 25.7733 135.431 25.496 135.569 25.184L138.975 26.224C138.663 26.9 138.204 27.5067 137.597 28.044C137.008 28.5813 136.306 29.006 135.491 29.318C134.694 29.6127 133.793 29.76 132.787 29.76ZM147.284 29.76C146.175 29.76 145.178 29.578 144.294 29.214C143.41 28.8327 142.656 28.3127 142.032 27.654C141.426 26.9953 140.958 26.2413 140.628 25.392C140.299 24.5427 140.134 23.65 140.134 22.714C140.134 21.7607 140.299 20.8593 140.628 20.01C140.958 19.1607 141.426 18.4067 142.032 17.748C142.656 17.0893 143.41 16.578 144.294 16.214C145.178 15.8327 146.175 15.642 147.284 15.642C148.394 15.642 149.382 15.8327 150.248 16.214C151.132 16.578 151.886 17.0893 152.51 17.748C153.134 18.4067 153.602 19.1607 153.914 20.01C154.244 20.8593 154.408 21.7607 154.408 22.714C154.408 23.65 154.244 24.5427 153.914 25.392C153.602 26.2413 153.134 26.9953 152.51 27.654C151.904 28.3127 151.158 28.8327 150.274 29.214C149.39 29.578 148.394 29.76 147.284 29.76ZM143.722 22.714C143.722 23.5113 143.878 24.222 144.19 24.846C144.502 25.4527 144.927 25.9293 145.464 26.276C146.002 26.6227 146.608 26.796 147.284 26.796C147.943 26.796 148.541 26.6227 149.078 26.276C149.616 25.912 150.04 25.4267 150.352 24.82C150.682 24.196 150.846 23.4853 150.846 22.688C150.846 21.908 150.682 21.206 150.352 20.582C150.04 19.958 149.616 19.4727 149.078 19.126C148.541 18.7793 147.943 18.606 147.284 18.606C146.608 18.606 146.002 18.788 145.464 19.152C144.927 19.4987 144.502 19.984 144.19 20.608C143.878 21.2147 143.722 21.9167 143.722 22.714ZM155.928 22.688C155.928 21.3707 156.188 20.1833 156.708 19.126C157.228 18.0513 157.947 17.202 158.866 16.578C159.784 15.954 160.833 15.642 162.012 15.642C163.017 15.642 163.918 15.8933 164.716 16.396C165.53 16.8813 166.163 17.5053 166.614 18.268V10.52H170.098V25.6C170.098 25.964 170.158 26.224 170.28 26.38C170.401 26.536 170.609 26.6313 170.904 26.666V29.5C170.297 29.6213 169.803 29.682 169.422 29.682C168.798 29.682 168.278 29.526 167.862 29.214C167.463 28.902 167.238 28.4947 167.186 27.992L167.134 27.134C166.631 27.9833 165.946 28.6333 165.08 29.084C164.23 29.5347 163.338 29.76 162.402 29.76C161.466 29.76 160.599 29.578 159.802 29.214C159.022 28.85 158.337 28.3473 157.748 27.706C157.176 27.0647 156.725 26.3193 156.396 25.47C156.084 24.6033 155.928 23.676 155.928 22.688ZM166.614 24.508V21.258C166.44 20.7553 166.163 20.3047 165.782 19.906C165.4 19.5073 164.976 19.1953 164.508 18.97C164.04 18.7273 163.572 18.606 163.104 18.606C162.566 18.606 162.081 18.7187 161.648 18.944C161.214 19.1693 160.833 19.4727 160.504 19.854C160.192 20.2353 159.949 20.6773 159.776 21.18C159.62 21.6827 159.542 22.2113 159.542 22.766C159.542 23.3207 159.628 23.8493 159.802 24.352C159.992 24.8373 160.261 25.262 160.608 25.626C160.954 25.99 161.353 26.276 161.804 26.484C162.272 26.692 162.774 26.796 163.312 26.796C163.641 26.796 163.97 26.744 164.3 26.64C164.646 26.5187 164.967 26.3627 165.262 26.172C165.574 25.964 165.842 25.7213 166.068 25.444C166.31 25.1493 166.492 24.8373 166.614 24.508ZM179.836 29.76C178.744 29.76 177.756 29.578 176.872 29.214C175.988 28.8327 175.234 28.3213 174.61 27.68C173.986 27.0213 173.5 26.276 173.154 25.444C172.824 24.5947 172.66 23.702 172.66 22.766C172.66 21.466 172.946 20.2787 173.518 19.204C174.107 18.1293 174.939 17.2713 176.014 16.63C177.106 15.9713 178.388 15.642 179.862 15.642C181.352 15.642 182.626 15.9713 183.684 16.63C184.741 17.2713 185.547 18.1293 186.102 19.204C186.674 20.2613 186.96 21.4053 186.96 22.636C186.96 22.844 186.951 23.0607 186.934 23.286C186.916 23.494 186.899 23.6673 186.882 23.806H176.352C176.421 24.4993 176.62 25.106 176.95 25.626C177.296 26.146 177.73 26.5447 178.25 26.822C178.787 27.082 179.359 27.212 179.966 27.212C180.659 27.212 181.309 27.0473 181.916 26.718C182.54 26.3713 182.964 25.9207 183.19 25.366L186.18 26.198C185.85 26.8913 185.374 27.5067 184.75 28.044C184.143 28.5813 183.424 29.006 182.592 29.318C181.76 29.6127 180.841 29.76 179.836 29.76ZM176.274 21.596H183.398C183.328 20.9027 183.129 20.3047 182.8 19.802C182.488 19.282 182.072 18.8833 181.552 18.606C181.032 18.3113 180.451 18.164 179.81 18.164C179.186 18.164 178.614 18.3113 178.094 18.606C177.591 18.8833 177.175 19.282 176.846 19.802C176.534 20.3047 176.343 20.9027 176.274 21.596ZM194.1 29.76C192.939 29.76 191.829 29.5693 190.772 29.188C189.715 28.8067 188.805 28.2433 188.042 27.498L189.29 25.236C190.105 25.8947 190.902 26.38 191.682 26.692C192.479 27.004 193.242 27.16 193.97 27.16C194.646 27.16 195.183 27.0387 195.582 26.796C195.998 26.5533 196.206 26.1893 196.206 25.704C196.206 25.3747 196.093 25.1233 195.868 24.95C195.643 24.7593 195.313 24.5947 194.88 24.456C194.464 24.3173 193.953 24.1613 193.346 23.988C192.341 23.6587 191.5 23.338 190.824 23.026C190.148 22.714 189.637 22.324 189.29 21.856C188.961 21.3707 188.796 20.7553 188.796 20.01C188.796 19.1087 189.021 18.3373 189.472 17.696C189.94 17.0373 190.581 16.526 191.396 16.162C192.228 15.798 193.199 15.616 194.308 15.616C195.279 15.616 196.197 15.772 197.064 16.084C197.931 16.3787 198.719 16.864 199.43 17.54L198.026 19.75C197.333 19.2127 196.674 18.8227 196.05 18.58C195.426 18.32 194.793 18.19 194.152 18.19C193.788 18.19 193.441 18.2333 193.112 18.32C192.8 18.4067 192.54 18.554 192.332 18.762C192.141 18.9527 192.046 19.23 192.046 19.594C192.046 19.9233 192.133 20.1833 192.306 20.374C192.497 20.5473 192.774 20.7033 193.138 20.842C193.519 20.9807 193.979 21.1367 194.516 21.31C195.608 21.622 196.527 21.9427 197.272 22.272C198.035 22.6013 198.607 23.0087 198.988 23.494C199.369 23.962 199.56 24.612 199.56 25.444C199.56 26.796 199.066 27.8533 198.078 28.616C197.09 29.3787 195.764 29.76 194.1 29.76ZM201.852 29.5V25.756H204.712V29.5H201.852ZM213.808 29.76C212.716 29.76 211.728 29.578 210.844 29.214C209.96 28.8327 209.206 28.3213 208.582 27.68C207.958 27.0213 207.473 26.276 207.126 25.444C206.797 24.5947 206.632 23.702 206.632 22.766C206.632 21.466 206.918 20.2787 207.49 19.204C208.08 18.1293 208.912 17.2713 209.986 16.63C211.078 15.9713 212.361 15.642 213.834 15.642C215.325 15.642 216.599 15.9713 217.656 16.63C218.714 17.2713 219.52 18.1293 220.074 19.204C220.646 20.2613 220.932 21.4053 220.932 22.636C220.932 22.844 220.924 23.0607 220.906 23.286C220.889 23.494 220.872 23.6673 220.854 23.806H210.324C210.394 24.4993 210.593 25.106 210.922 25.626C211.269 26.146 211.702 26.5447 212.222 26.822C212.76 27.082 213.332 27.212 213.938 27.212C214.632 27.212 215.282 27.0473 215.888 26.718C216.512 26.3713 216.937 25.9207 217.162 25.366L220.152 26.198C219.823 26.8913 219.346 27.5067 218.722 28.044C218.116 28.5813 217.396 29.006 216.564 29.318C215.732 29.6127 214.814 29.76 213.808 29.76ZM210.246 21.596H217.37C217.301 20.9027 217.102 20.3047 216.772 19.802C216.46 19.282 216.044 18.8833 215.524 18.606C215.004 18.3113 214.424 18.164 213.782 18.164C213.158 18.164 212.586 18.3113 212.066 18.606C211.564 18.8833 211.148 19.282 210.818 19.802C210.506 20.3047 210.316 20.9027 210.246 21.596ZM224.783 15.876L227.643 20.14L227.851 20.608L228.111 20.14L230.945 15.876H234.611L229.879 22.662L234.689 29.5H231.023L228.085 25.262L227.851 24.82L227.643 25.262L224.731 29.5H221.065L225.875 22.74L221.143 15.876H224.783ZM244.523 29.76C243.466 29.76 242.53 29.526 241.715 29.058C240.918 28.5727 240.294 27.9227 239.843 27.108V35.038H236.359V15.876H239.401V18.216C239.921 17.4187 240.58 16.7947 241.377 16.344C242.175 15.876 243.085 15.642 244.107 15.642C245.026 15.642 245.867 15.824 246.629 16.188C247.409 16.552 248.085 17.0633 248.657 17.722C249.229 18.3633 249.671 19.1087 249.983 19.958C250.313 20.79 250.477 21.6913 250.477 22.662C250.477 23.9793 250.217 25.1753 249.697 26.25C249.195 27.3247 248.493 28.1827 247.591 28.824C246.707 29.448 245.685 29.76 244.523 29.76ZM243.353 26.796C243.891 26.796 244.376 26.6833 244.809 26.458C245.243 26.2327 245.615 25.9293 245.927 25.548C246.257 25.1493 246.499 24.7073 246.655 24.222C246.829 23.7193 246.915 23.1993 246.915 22.662C246.915 22.09 246.82 21.5613 246.629 21.076C246.456 20.5907 246.196 20.166 245.849 19.802C245.503 19.4207 245.095 19.126 244.627 18.918C244.177 18.71 243.683 18.606 243.145 18.606C242.816 18.606 242.478 18.6667 242.131 18.788C241.802 18.892 241.481 19.048 241.169 19.256C240.857 19.464 240.58 19.7067 240.337 19.984C240.112 20.2613 239.947 20.5647 239.843 20.894V24.092C240.051 24.5947 240.329 25.054 240.675 25.47C241.039 25.886 241.455 26.2153 241.923 26.458C242.391 26.6833 242.868 26.796 243.353 26.796ZM259.156 29.76C258.064 29.76 257.076 29.578 256.192 29.214C255.308 28.8327 254.554 28.3213 253.93 27.68C253.306 27.0213 252.821 26.276 252.474 25.444C252.145 24.5947 251.98 23.702 251.98 22.766C251.98 21.466 252.266 20.2787 252.838 19.204C253.427 18.1293 254.259 17.2713 255.334 16.63C256.426 15.9713 257.709 15.642 259.182 15.642C260.673 15.642 261.947 15.9713 263.004 16.63C264.061 17.2713 264.867 18.1293 265.422 19.204C265.994 20.2613 266.28 21.4053 266.28 22.636C266.28 22.844 266.271 23.0607 266.254 23.286C266.237 23.494 266.219 23.6673 266.202 23.806H255.672C255.741 24.4993 255.941 25.106 256.27 25.626C256.617 26.146 257.05 26.5447 257.57 26.822C258.107 27.082 258.679 27.212 259.286 27.212C259.979 27.212 260.629 27.0473 261.236 26.718C261.86 26.3713 262.285 25.9207 262.51 25.366L265.5 26.198C265.171 26.8913 264.694 27.5067 264.07 28.044C263.463 28.5813 262.744 29.006 261.912 29.318C261.08 29.6127 260.161 29.76 259.156 29.76ZM255.594 21.596H262.718C262.649 20.9027 262.449 20.3047 262.12 19.802C261.808 19.282 261.392 18.8833 260.872 18.606C260.352 18.3113 259.771 18.164 259.13 18.164C258.506 18.164 257.934 18.3113 257.414 18.606C256.911 18.8833 256.495 19.282 256.166 19.802C255.854 20.3047 255.663 20.9027 255.594 21.596ZM276.514 18.892C275.457 18.892 274.512 19.1 273.68 19.516C272.848 19.9147 272.25 20.4953 271.886 21.258V29.5H268.402V15.876H271.6V18.788C272.086 17.852 272.701 17.1153 273.446 16.578C274.192 16.0407 274.98 15.746 275.812 15.694C276.003 15.694 276.15 15.694 276.254 15.694C276.358 15.694 276.445 15.7027 276.514 15.72V18.892ZM286.621 28.798C286.326 28.9193 285.971 29.058 285.555 29.214C285.139 29.37 284.688 29.4913 284.203 29.578C283.735 29.682 283.258 29.734 282.773 29.734C282.132 29.734 281.542 29.6213 281.005 29.396C280.468 29.1707 280.034 28.8153 279.705 28.33C279.393 27.8273 279.237 27.1773 279.237 26.38V18.554H277.443V15.876H279.237V11.456H282.721V15.876H285.581V18.554H282.721V25.21C282.738 25.678 282.868 26.016 283.111 26.224C283.354 26.432 283.657 26.536 284.021 26.536C284.385 26.536 284.74 26.4753 285.087 26.354C285.434 26.2327 285.711 26.1287 285.919 26.042L286.621 28.798Z" fill="url(#paint1_linear_7_78)"/>
<defs>
<linearGradient id="paint0_linear_7_78" x1="3.75" y1="19.9999" x2="39.7829" y2="20.5406" gradientUnits="userSpaceOnUse">
<stop stop-color="#04D268"/>
<stop offset="1" stop-color="#009233"/>
</linearGradient>
<linearGradient id="paint1_linear_7_78" x1="48" y1="20" x2="308.992" y2="52.5058" gradientUnits="userSpaceOnUse">
<stop stop-color="#04D268"/>
<stop offset="1" stop-color="#009233"/>
</linearGradient>
</defs>
</svg>
