<svg width="13" height="14" viewBox="0 0 13 14" fill="none" xmlns="http://www.w3.org/2000/svg">
<mask id="mask0_2001_513" style="mask-type:luminance" maskUnits="userSpaceOnUse" x="0" y="1" width="13" height="12">
<path d="M6.49998 12.4167C7.21144 12.4175 7.91606 12.2778 8.57335 12.0055C9.23065 11.7333 9.82767 11.3338 10.3301 10.8301C10.8338 10.3277 11.2333 9.73065 11.5055 9.07335C11.7778 8.41606 11.9175 7.71144 11.9167 6.99998C11.9175 6.28853 11.7778 5.58391 11.5055 4.92662C11.2333 4.26932 10.8338 3.6723 10.3301 3.16986C9.82767 2.66615 9.23065 2.26669 8.57335 1.99442C7.91606 1.72215 7.21144 1.58244 6.49998 1.58332C5.78853 1.58244 5.08391 1.72215 4.42662 1.99442C3.76932 2.26669 3.1723 2.66615 2.66986 3.16986C2.16615 3.6723 1.76669 4.26932 1.49442 4.92662C1.22215 5.58391 1.08244 6.28853 1.08332 6.99998C1.08244 7.71144 1.22215 8.41606 1.49442 9.07335C1.76669 9.73065 2.16615 10.3277 2.66986 10.8301C3.1723 11.3338 3.76932 11.7333 4.42662 12.0055C5.08391 12.2778 5.78853 12.4175 6.49998 12.4167Z" fill="white"/>
<path fill-rule="evenodd" clip-rule="evenodd" d="M4.21933 1.494C4.94235 1.1945 5.71741 1.04078 6.49999 1.04166C7.28258 1.04078 8.05764 1.1945 8.78065 1.494C9.50363 1.79347 10.1603 2.23281 10.7131 2.78677C11.2671 3.33952 11.7065 3.99628 12.006 4.71933C12.3055 5.44235 12.4592 6.21741 12.4583 6.99999C12.4592 7.78258 12.3055 8.55764 12.006 9.28065C11.7065 10.0037 11.2671 10.6604 10.7131 11.2131C10.1604 11.7671 9.50367 12.2065 8.78065 12.506C8.05764 12.8055 7.28258 12.9592 6.49999 12.9583C5.71741 12.9592 4.94235 12.8055 4.21933 12.506C3.49632 12.2065 2.83959 11.7671 2.28685 11.2131C1.73285 10.6604 1.29349 10.0037 0.993997 9.28065C0.694503 8.55764 0.540783 7.78258 0.54166 6.99999C0.540783 6.21741 0.694503 5.44235 0.993997 4.71933C1.29349 3.99632 1.73285 3.33959 2.28685 2.78685C2.83959 2.23285 3.49632 1.79349 4.21933 1.494ZM6.49933 2.12499C5.85923 2.1242 5.22529 2.2499 4.63392 2.49486C4.04255 2.73982 3.50541 3.09922 3.05337 3.5524L3.0524 3.55337C2.59922 4.00541 2.23982 4.54255 1.99486 5.13392C1.7499 5.72529 1.6242 6.35923 1.62499 6.99933V7.00066C1.6242 7.64076 1.7499 8.2747 1.99486 8.86607C2.23982 9.45744 2.59922 9.99457 3.0524 10.4466L3.05337 10.4476C3.50541 10.9008 4.04255 11.2602 4.63392 11.5051C5.22529 11.7501 5.85923 11.8758 6.49933 11.875H6.50066C7.14076 11.8758 7.7747 11.7501 8.36607 11.5051C8.95744 11.2602 9.49457 10.9008 9.94662 10.4476L9.94758 10.4466C10.4008 9.99457 10.7602 9.45744 11.0051 8.86607C11.2501 8.2747 11.3758 7.64076 11.375 7.00066V6.99933C11.3758 6.35923 11.2501 5.72529 11.0051 5.13392C10.7602 4.54255 10.4008 4.00541 9.94758 3.55337L9.94662 3.5524C9.49457 3.09922 8.95744 2.73982 8.36607 2.49486C7.7747 2.2499 7.14076 2.1242 6.50066 2.12499H6.49933Z" fill="white"/>
<path fill-rule="evenodd" clip-rule="evenodd" d="M9.59134 4.99196C9.80287 5.2035 9.80287 5.54646 9.59134 5.758L6.34134 9.008C6.12981 9.21953 5.78684 9.21953 5.57531 9.008L3.95031 7.383C3.73877 7.17146 3.73877 6.8285 3.95031 6.61696C4.16184 6.40543 4.50481 6.40543 4.71634 6.61696L5.95832 7.85895L8.82531 4.99196C9.03684 4.78043 9.37981 4.78043 9.59134 4.99196Z" fill="black"/>
</mask>
<g mask="url(#mask0_2001_513)">
<path d="M0 0.5H13V13.5H0V0.5Z" fill="url(#paint0_linear_2001_513)"/>
</g>
<defs>
<linearGradient id="paint0_linear_2001_513" x1="-1.72255e-09" y1="7" x2="14.4126" y2="7.23283" gradientUnits="userSpaceOnUse">
<stop stop-color="#04D268"/>
<stop offset="1" stop-color="#009233"/>
</linearGradient>
</defs>
</svg>
