<svg width="10" height="8" viewBox="0 0 10 8" fill="none" xmlns="http://www.w3.org/2000/svg">
<path d="M4.10791 7.81299C3.83545 7.81299 3.6084 7.70459 3.42676 7.48779L1.15918 4.74121C1.08008 4.65039 1.02441 4.5625 0.992188 4.47754C0.959961 4.39258 0.943848 4.30469 0.943848 4.21387C0.943848 4.00586 1.0127 3.83447 1.15039 3.69971C1.29102 3.56201 1.4668 3.49316 1.67773 3.49316C1.91211 3.49316 2.10693 3.58838 2.26221 3.77881L4.09033 6.04199L7.68066 0.368652C7.77148 0.230957 7.86523 0.134277 7.96191 0.0786133C8.06152 0.0200195 8.18311 -0.00927734 8.32666 -0.00927734C8.5376 -0.00927734 8.71191 0.0581055 8.84961 0.192871C8.9873 0.327637 9.05615 0.497559 9.05615 0.702637C9.05615 0.778809 9.04297 0.85791 9.0166 0.939941C8.99023 1.02197 8.94922 1.10693 8.89355 1.19482L4.80225 7.45703C4.64111 7.69434 4.40967 7.81299 4.10791 7.81299Z" fill="black"/>
</svg>
