<svg width="17" height="18" viewBox="0 0 17 18" fill="none"
    xmlns="http://www.w3.org/2000/svg">
    <path
        d="M15.7247 12.9904L9.91751 2.90524C9.77239 2.65816 9.56522 2.45329 9.31654 2.31094C9.06785 2.16859 8.78628 2.09371 8.49974 2.09371C8.21319 2.09371 7.93162 2.16859 7.68293 2.31094C7.43425 2.45329 7.22708 2.65816 7.08196 2.90524L1.27474 12.9904C1.13511 13.2293 1.06152 13.5011 1.06152 13.7779C1.06152 14.0547 1.13511 14.3265 1.27474 14.5655C1.41799 14.8141 1.62481 15.0201 1.87396 15.1623C2.12311 15.3046 2.40562 15.378 2.69251 15.375H14.307C14.5936 15.3777 14.8759 15.3042 15.1248 15.162C15.3737 15.0197 15.5803 14.8139 15.7234 14.5655C15.8632 14.3266 15.9371 14.0549 15.9373 13.7781C15.9375 13.5013 15.8642 13.2295 15.7247 12.9904ZM7.96849 7.40625C7.96849 7.26536 8.02446 7.13023 8.12409 7.0306C8.22371 6.93097 8.35884 6.875 8.49974 6.875C8.64063 6.875 8.77576 6.93097 8.87539 7.0306C8.97502 7.13023 9.03099 7.26536 9.03099 7.40625V10.0625C9.03099 10.2034 8.97502 10.3385 8.87539 10.4382C8.77576 10.5378 8.64063 10.5938 8.49974 10.5938C8.35884 10.5938 8.22371 10.5378 8.12409 10.4382C8.02446 10.3385 7.96849 10.2034 7.96849 10.0625V7.40625ZM8.49974 13.25C8.34213 13.25 8.18806 13.2033 8.05702 13.1157C7.92597 13.0281 7.82383 12.9037 7.76352 12.7581C7.70321 12.6125 7.68742 12.4522 7.71817 12.2977C7.74892 12.1431 7.82481 12.0011 7.93626 11.8897C8.0477 11.7782 8.18969 11.7023 8.34427 11.6716C8.49885 11.6408 8.65908 11.6566 8.80469 11.7169C8.9503 11.7772 9.07475 11.8794 9.16231 12.0104C9.24987 12.1415 9.29661 12.2955 9.29661 12.4531C9.29661 12.6645 9.21265 12.8672 9.06321 13.0166C8.91377 13.166 8.71108 13.25 8.49974 13.25Z"
        fill="#F2E449" />
</svg>