<svg width="40" height="40" viewBox="0 0 40 40" fill="none" xmlns="http://www.w3.org/2000/svg">
<path d="M34.95 10.3359L21.2 2.81251C20.8323 2.61036 20.4196 2.50436 20 2.50436C19.5804 2.50436 19.1677 2.61036 18.8 2.81251L5.05 10.3406C4.65733 10.5555 4.32954 10.8718 4.10086 11.2566C3.87219 11.6414 3.75102 12.0805 3.75 12.5281V27.4719C3.75102 27.9195 3.87219 28.3586 4.10086 28.7434C4.32954 29.1282 4.65733 29.4445 5.05 29.6594L18.8 37.1859C19.1674 37.3889 19.5803 37.4954 20 37.4954C20.4197 37.4954 20.8326 37.3889 21.2 37.1859L34.95 29.6594C35.3427 29.4445 35.6705 29.1282 35.8991 28.7434C36.1278 28.3586 36.249 27.9195 36.25 27.4719V12.5281C36.2498 12.0797 36.129 11.6396 35.9003 11.2539C35.6716 10.8683 35.3434 10.5512 34.95 10.3359ZM26.25 23.75V31.5766L21.25 34.3141V20.7406L33.75 13.8969V18.8969L26.9 22.6469C26.7023 22.7551 26.5375 22.9147 26.423 23.1089C26.3086 23.3031 26.2488 23.5246 26.25 23.75ZM13.1 22.6563L6.25 18.9063V13.9063L18.75 20.75V34.3234L13.75 31.5766V23.75C13.7495 23.5262 13.6889 23.3066 13.5746 23.1142C13.4602 22.9219 13.2963 22.7637 13.1 22.6563ZM12.9906 8.8422L19.3969 12.35C19.5808 12.4507 19.7872 12.5034 19.9969 12.5034C20.2066 12.5034 20.4129 12.4507 20.5969 12.35L27.0031 8.8422L32.3906 11.7906L20 18.575L7.60313 11.7875L12.9906 8.8422ZM20 5.00001L24.4062 7.41251L20 9.82657L15.5938 7.41407L20 5.00001ZM6.25 21.7531L11.25 24.4906V30.2078L6.25 27.4719V21.7531ZM28.75 30.2078V24.4906L33.75 21.7531V27.4719L28.75 30.2078Z" fill="url(#paint0_linear_47_2282)"/>
<defs>
<linearGradient id="paint0_linear_47_2282" x1="3.75" y1="19.9999" x2="39.7829" y2="20.5406" gradientUnits="userSpaceOnUse">
<stop stop-color="#04D268"/>
<stop offset="1" stop-color="#009233"/>
</linearGradient>
</defs>
</svg>
