<svg width="15" height="16" viewBox="0 0 15 16" fill="none" xmlns="http://www.w3.org/2000/svg">
<path d="M11.0086 10.1968C11.9163 8.95791 12.3229 7.42194 12.1469 5.89615C11.971 4.37036 11.2255 2.96727 10.0596 1.9676C8.89374 0.967925 7.39345 0.445386 5.8589 0.504523C4.32436 0.56366 2.86872 1.20011 1.78321 2.28655C0.697708 3.37298 0.0623867 4.82928 0.00435596 6.36409C-0.0536748 7.89889 0.469864 9.39902 1.47023 10.5643C2.4706 11.7297 3.87402 12.4743 5.39972 12.6491C6.92542 12.824 8.46088 12.4163 9.69891 11.5075H9.69798C9.72548 11.545 9.7561 11.581 9.78985 11.6153L13.3991 15.2251C13.5749 15.401 13.8133 15.4999 14.062 15.5C14.3107 15.5001 14.5492 15.4014 14.7251 15.2256C14.901 15.0498 14.9999 14.8113 15 14.5625C15.0001 14.3138 14.9014 14.0753 14.7256 13.8993L11.1164 10.2896C11.0829 10.2556 11.0468 10.2252 11.0086 10.1968ZM11.2504 6.59264C11.2504 7.26984 11.1171 7.94041 10.8579 8.56606C10.5988 9.19171 10.219 9.76019 9.74024 10.239C9.26146 10.7179 8.69306 11.0977 8.0675 11.3569C7.44194 11.616 6.77147 11.7494 6.09436 11.7494C5.41726 11.7494 4.74679 11.616 4.12123 11.3569C3.49566 11.0977 2.92726 10.7179 2.44848 10.239C1.9697 9.76019 1.5899 9.19171 1.33079 8.56606C1.07167 7.94041 0.938307 7.26984 0.938307 6.59264C0.938307 5.22498 1.48153 3.91333 2.44848 2.94625C3.41543 1.97916 4.72689 1.43586 6.09436 1.43586C7.46183 1.43586 8.7733 1.97916 9.74024 2.94625C10.7072 3.91333 11.2504 5.22498 11.2504 6.59264Z" fill="white"/>
</svg>
