<svg width="20" height="20" viewBox="0 0 20 20" fill="none" xmlns="http://www.w3.org/2000/svg">
<path d="M5.41908 3.55357C4.92417 3.55357 4.44953 3.75017 4.09957 4.10013C3.74962 4.45009 3.55301 4.92473 3.55301 5.41964V14.5804C3.55301 15.0753 3.74962 15.5499 4.09957 15.8999C4.44953 16.2498 4.92417 16.4464 5.41908 16.4464H14.5798C15.0747 16.4464 15.5494 16.2498 15.8993 15.8999C16.2493 15.5499 16.4459 15.0753 16.4459 14.5804V11.5268C16.4459 11.3918 16.4995 11.2624 16.5949 11.1669C16.6904 11.0715 16.8198 11.0179 16.9548 11.0179C17.0898 11.0179 17.2192 11.0715 17.3147 11.1669C17.4101 11.2624 17.4637 11.3918 17.4637 11.5268V14.5804C17.4637 15.3452 17.1599 16.0788 16.619 16.6196C16.0782 17.1604 15.3447 17.4643 14.5798 17.4643H5.41908C4.65422 17.4643 3.92068 17.1604 3.37984 16.6196C2.839 16.0788 2.53516 15.3452 2.53516 14.5804V5.41964C2.53516 4.65478 2.839 3.92124 3.37984 3.3804C3.92068 2.83955 4.65422 2.53571 5.41908 2.53571H8.47266C8.60763 2.53571 8.73708 2.58933 8.83252 2.68477C8.92797 2.78022 8.98158 2.90967 8.98158 3.04464C8.98158 3.17962 8.92797 3.30907 8.83252 3.40451C8.73708 3.49995 8.60763 3.55357 8.47266 3.55357H5.41908ZM11.0173 3.04464C11.0173 2.90967 11.0709 2.78022 11.1664 2.68477C11.2618 2.58933 11.3913 2.53571 11.5262 2.53571H16.9548C17.0898 2.53571 17.2192 2.58933 17.3147 2.68477C17.4101 2.78022 17.4637 2.90967 17.4637 3.04464V8.47321C17.4637 8.60819 17.4101 8.73764 17.3147 8.83308C17.2192 8.92852 17.0898 8.98214 16.9548 8.98214C16.8198 8.98214 16.6904 8.92852 16.5949 8.83308C16.4995 8.73764 16.4459 8.60819 16.4459 8.47321V4.27286L12.2252 8.49357C12.1786 8.54357 12.1224 8.58368 12.0599 8.61149C11.9975 8.63931 11.9301 8.65427 11.8618 8.65547C11.7935 8.65668 11.7256 8.64411 11.6622 8.61851C11.5988 8.59291 11.5413 8.55482 11.493 8.50649C11.4446 8.45816 11.4065 8.4006 11.3809 8.33723C11.3553 8.27386 11.3428 8.20598 11.344 8.13764C11.3452 8.06931 11.3601 8.00192 11.3879 7.93949C11.4158 7.87706 11.4559 7.82088 11.5059 7.77428L15.7266 3.55357H11.5262C11.3913 3.55357 11.2618 3.49995 11.1664 3.40451C11.0709 3.30907 11.0173 3.17962 11.0173 3.04464Z" fill="white"/>
</svg>
